<svg xmlns="http://www.w3.org/2000/svg" width={1080} height={1080} viewBox="0 0 810 810" {...props}>
	<path fill="#ff3131"
		d="m305.197 659.44 32.109-55.75 14.89 3.126 4.657 43.296 22.11-37.703 14.796 3.11 7.125 63.984-14.36-3.016-4.718-44.906-22.922 39.125-12.812-2.687-4.797-45.282-22.844 39.485ZM268.46 592.893c.087-.156.778-1.172 2.079-3.047l30.766 17.813c.898-2.836.734-5.586-.485-8.25-1.219-2.656-3.363-4.875-6.437-6.656-2.114-1.227-4.172-2-6.172-2.313-2-.32-4.098-.207-6.297.344l-2.344-10.438c6.375-2.175 13.242-1.132 20.594 3.125 4.594 2.657 8.137 5.903 10.625 9.735 2.492 3.836 3.773 7.89 3.844 12.172.074 4.289-1.055 8.453-3.39 12.484-2.302 3.977-5.321 7.02-9.063 9.125-3.75 2.113-7.79 3.11-12.125 2.984-4.344-.125-8.555-1.37-12.641-3.734-3.977-2.305-7.082-5.246-9.313-8.828-2.226-3.586-3.335-7.508-3.328-11.766 0-4.261 1.23-8.508 3.688-12.75Zm14.063 24.39c2.668 1.54 5.352 2.083 8.047 1.626 2.688-.461 4.992-1.887 6.906-4.281l-20.046-11.61c-1.082 2.813-1.16 5.508-.235 8.094.93 2.594 2.703 4.648 5.328 6.172ZM225.425 586.751c-3.164-3-5.36-6.465-6.578-10.39-1.22-3.926-1.317-7.91-.297-11.954 1.023-4.05 3.199-7.832 6.531-11.343 3.324-3.508 6.98-5.88 10.969-7.11 3.992-1.238 7.98-1.351 11.968-.343 3.98 1.011 7.555 3.015 10.72 6.015 4.687 4.45 6.85 9.32 6.484 14.61l3.734-3.938 9.453 8.969-44.625 47.031-9.89-9.39 15.703-16.547c-5.094.382-9.817-1.485-14.172-5.61Zm27.312-25.375c-2.531-2.406-5.422-3.523-8.672-3.36-3.25.169-6.234 1.688-8.953 4.563-2.726 2.875-4.086 5.938-4.078 9.188 0 3.25 1.266 6.078 3.797 8.484 2.543 2.406 5.437 3.524 8.687 3.36 3.243-.168 6.227-1.688 8.954-4.563 2.718-2.875 4.078-5.937 4.078-9.187 0-3.25-1.27-6.079-3.813-8.485ZM195.944 532.158c-2.226-4.945-2.828-9.468-1.797-13.562 1.032-4.102 3.465-7.426 7.297-9.969 2.961-1.957 6.203-2.988 9.735-3.094 3.53-.101 7.105.938 10.718 3.125 3.606 2.188 6.938 5.594 10 10.22a47.998 47.998 0 0 1 5.594 11.53c1.344 4.094 1.945 7.938 1.797 11.532l-12.063 1.39c.18-2.906-.175-5.898-1.062-8.984a31.428 31.428 0 0 0-3.984-8.64c-1.958-2.958-4.067-4.91-6.329-5.86-2.27-.945-4.453-.727-6.546.656-4.188 2.774-4.176 7.34.03 13.703l3.563 5.391-7.781 5.14-18.812-2.64 14.359 21.734-9.484 6.266-23.61-35.719 7.656-5.062Zm0 0" />
	<path
		d="M206.21 468.308c.782 2.273.668 4.445-.343 6.515-1.008 2.063-2.672 3.496-4.985 4.297-2.375.82-4.554.719-6.547-.312-1.988-1.04-3.375-2.696-4.156-4.97-.781-2.25-.707-4.394.219-6.437.93-2.039 2.578-3.472 4.953-4.297 2.313-.8 4.508-.695 6.578.313 2.074 1.012 3.5 2.64 4.281 4.89ZM145.369 425.219l1.484 19.516-11.5.875-4.031-53.141 11.5-.875 1.484 19.5 49.484-3.766 1.063 14.125ZM176.5 338.704c.18.031 1.376.305 3.595.813l-5.172 35.187c2.968-.207 5.468-1.367 7.5-3.484 2.023-2.125 3.289-4.946 3.797-8.47.355-2.413.308-4.608-.141-6.577-.445-1.977-1.328-3.895-2.64-5.75l8.827-6.031c4.375 5.125 5.946 11.89 4.72 20.296-.774 5.25-2.477 9.743-5.11 13.47-2.633 3.73-5.93 6.429-9.89 8.093-3.958 1.656-8.24 2.148-12.845 1.469-4.55-.664-8.5-2.348-11.843-5.047-3.344-2.696-5.758-6.082-7.25-10.156-1.5-4.082-1.907-8.457-1.22-13.125.669-4.551 2.25-8.524 4.75-11.922 2.5-3.407 5.735-5.895 9.704-7.47 3.969-1.57 8.375-2.003 13.219-1.296Zm-17.452 22.11c-.446 3.054.043 5.746 1.468 8.078 1.418 2.324 3.594 3.933 6.532 4.828l3.36-22.907c-3.009.024-5.548.946-7.61 2.766-2.063 1.824-3.313 4.234-3.75 7.234ZM209.523 318.61c-1.774 4.68-4.336 8.516-7.688 11.516-3.344 3-7.129 4.902-11.36 5.703-4.226.793-8.519.367-12.874-1.281-4.363-1.656-7.863-4.18-10.5-7.578-2.633-3.395-4.207-7.328-4.719-11.797-.52-4.469.106-9.04 1.875-13.719 1.762-4.633 4.262-8.312 7.5-11.031 3.242-2.719 6.965-4.191 11.172-4.422l1.547 11.89c-4.883.774-8.145 3.31-9.781 7.61-1.258 3.324-1.211 6.492.14 9.5 1.344 3 3.899 5.215 7.656 6.64 3.762 1.43 7.149 1.466 10.157.11 3-1.363 5.133-3.707 6.39-7.031 1.657-4.352.883-8.414-2.312-12.188l9.14-7.828c2.883 2.907 4.657 6.461 5.313 10.657.656 4.199.102 8.617-1.656 13.25ZM193.182 247.326c3.243-4.844 7.309-7.781 12.204-8.813 4.886-1.039 10.187.352 15.906 4.172l22.36 14.969-7.579 11.328-20.625-13.797c-3.094-2.07-5.852-2.941-8.281-2.61-2.438.337-4.516 1.79-6.235 4.36-1.906 2.856-2.539 5.719-1.906 8.594.625 2.875 2.684 5.48 6.172 7.812l19.313 12.922-7.579 11.328-53.875-36.046 7.579-11.329 18.875 12.625c-.5-2.5-.43-5.078.203-7.734.625-2.664 1.78-5.258 3.468-7.781ZM236.228 199.22c4.313-3.907 8.969-5.766 13.969-5.579 5 .18 9.805 2.82 14.422 7.922L282.68 221.5l-10.094 9.157-16.656-18.39c-2.5-2.759-4.976-4.27-7.422-4.532-2.437-.27-4.808.633-7.109 2.703-2.54 2.312-3.852 4.937-3.938 7.875-.082 2.937 1.29 5.965 4.11 9.078l15.594 17.219-10.094 9.14-31.547-34.843 9.64-8.735 3.688 4.078c.012-2.664.652-5.3 1.922-7.906 1.262-2.601 3.078-4.976 5.453-7.125ZM264.289 178.599l11.546-7.234 24.97 39.828-11.548 7.234Zm2.28-9.156c-2.113 1.324-4.222 1.789-6.327 1.39-2.102-.394-3.727-1.504-4.875-3.328-1.145-1.832-1.438-3.785-.875-5.86.554-2.07 1.886-3.769 4-5.093 2.125-1.332 4.23-1.82 6.312-1.469 2.074.344 3.668 1.403 4.781 3.172 1.211 1.93 1.543 3.946 1 6.047-.55 2.094-1.89 3.809-4.015 5.14ZM328.59 198.37c-4.617 1.962-9.167 2.766-13.656 2.422-4.48-.343-8.468-1.765-11.968-4.265-3.489-2.5-6.145-5.89-7.97-10.172-1.82-4.3-2.421-8.578-1.796-12.828.625-4.25 2.371-8.102 5.234-11.563 2.867-3.468 6.602-6.18 11.219-8.14 4.55-1.938 8.93-2.672 13.14-2.203 4.22.46 7.86 2.12 10.923 4.984l-7.5 9.344c-3.95-3-8.04-3.598-12.266-1.797-3.274 1.398-5.527 3.625-6.766 6.687-1.242 3.055-1.074 6.43.5 10.125 1.57 3.7 3.89 6.164 6.953 7.391 3.063 1.23 6.227 1.148 9.5-.25 4.282-1.82 6.68-5.188 7.204-10.094l11.968 1.188c-.093 4.105-1.433 7.843-4.015 11.218-2.586 3.368-6.153 6.016-10.703 7.954ZM359.058 139.011c7.144-1.351 12.957-.691 17.437 1.985 4.477 2.668 7.367 7.433 8.672 14.297l5 26.359-12.516 2.375-1.093-5.75c-1.711 4.773-5.996 7.809-12.86 9.11-3.554.679-6.746.663-9.578-.048-2.824-.718-5.125-2.003-6.906-3.859-1.781-1.851-2.93-4.129-3.438-6.828-.812-4.281.164-7.957 2.938-11.031 2.77-3.07 7.535-5.25 14.297-6.532l10.64-2.03c-.554-2.915-1.87-4.993-3.953-6.235-2.074-1.238-4.883-1.52-8.422-.844a23.69 23.69 0 0 0-7.047 2.547c-2.23 1.219-4.046 2.64-5.453 4.266l-6.578-8.438c2.18-2.25 4.93-4.191 8.266-5.828a41.093 41.093 0 0 1 10.594-3.516Zm6.28 38.735c2.29-.426 4.22-1.336 5.782-2.735 1.57-1.406 2.54-3.21 2.906-5.422l-.89-4.718-9.188 1.75c-5.5 1.043-7.914 3.367-7.234 6.968.32 1.72 1.254 2.954 2.797 3.704 1.539.75 3.484.902 5.828.453ZM396.147 117.181l13.625-.328 1.594 64.813-13.625.328ZM469.406 191.148c-6.023-1.594-11.12-4.352-15.297-8.266-4.18-3.906-7.043-8.55-8.593-13.938-1.555-5.382-1.559-11.003-.016-16.859 1.563-5.851 4.348-10.726 8.36-14.625 4.019-3.906 8.812-6.523 14.374-7.86 5.563-1.331 11.383-1.195 17.47.407 5.124 1.367 9.515 3.496 13.171 6.39 3.664 2.9 6.461 6.415 8.39 10.547l-10.952 5.782c-2.762-5.688-7.102-9.313-13.016-10.875-3.668-.969-7.152-1.024-10.453-.172-3.293.844-6.121 2.492-8.485 4.937-2.367 2.438-4.039 5.485-5.015 9.141-.969 3.656-1.031 7.137-.188 10.437.844 3.305 2.489 6.137 4.938 8.5 2.445 2.368 5.504 4.032 9.172 5 5.914 1.563 11.488.54 16.718-3.078l6.641 10.438c-3.73 2.687-7.918 4.379-12.562 5.078-4.649.695-9.532.367-14.657-.984ZM514.292 209.416c-4.336-2.398-7.72-5.453-10.157-9.171-2.437-3.711-3.734-7.704-3.89-11.985-.157-4.281.89-8.457 3.14-12.531 2.258-4.082 5.243-7.191 8.953-9.328 3.72-2.145 7.797-3.164 12.235-3.063 4.437.094 8.82 1.34 13.156 3.735 4.32 2.398 7.691 5.445 10.11 9.14 2.425 3.7 3.718 7.688 3.874 11.97.165 4.28-.882 8.46-3.14 12.546-2.25 4.07-5.235 7.176-8.953 9.312-3.72 2.145-7.793 3.176-12.22 3.094-4.417-.086-8.788-1.324-13.108-3.719Zm5.421-9.78c3.063 1.687 6.141 2.038 9.235 1.062 3.101-.98 5.613-3.2 7.531-6.657 1.926-3.468 2.477-6.773 1.656-9.921-.824-3.157-2.765-5.579-5.828-7.266-3.054-1.688-6.148-2.05-9.281-1.094-3.125.961-5.652 3.172-7.578 6.64-1.918 3.462-2.45 6.778-1.594 9.954.852 3.164 2.805 5.594 5.86 7.281ZM592.114 206.972c4.29 3.95 6.566 8.422 6.828 13.422.27 5-1.922 10.023-6.578 15.078l-18.219 19.797-10.031-9.234 16.813-18.25c2.52-2.75 3.8-5.356 3.843-7.813.04-2.445-1.078-4.719-3.36-6.812-2.523-2.332-5.25-3.399-8.187-3.204-2.937.188-5.828 1.825-8.671 4.907l-15.735 17.093-10.031-9.234 31.828-34.578 9.578 8.812-3.719 4.047c2.676-.238 5.364.157 8.063 1.188 2.695 1.023 5.223 2.617 7.578 4.781ZM597.183 284.044c-1.594-.5-3.164-1.399-4.703-2.688-1.531-1.293-2.934-2.812-4.203-4.562-3.282-4.524-4.668-8.86-4.157-13.016.52-4.148 3.024-7.843 7.516-11.093l15.625-11.329-4.266-5.875 8.5-6.14 4.266 5.875 9.266-6.735 7.984 11.032-9.266 6.734 6.875 9.5-8.5 6.14-6.875-9.5-15.484 11.22c-1.605 1.163-2.543 2.476-2.812 3.937-.274 1.457.14 2.941 1.234 4.453 1.27 1.75 2.816 2.895 4.64 3.438ZM637.382 318.844c-.157.07-1.309.508-3.453 1.313l-15.079-32.203c-2.355 1.812-3.792 4.156-4.312 7.031-.523 2.883-.031 5.937 1.469 9.156 1.039 2.219 2.289 4.024 3.75 5.422 1.468 1.406 3.258 2.516 5.375 3.328l-4.047 9.906c-6.469-1.867-11.508-6.648-15.11-14.343-2.25-4.805-3.304-9.492-3.156-14.063.145-4.562 1.41-8.625 3.797-12.187 2.383-3.563 5.688-6.332 9.906-8.313 4.164-1.945 8.383-2.71 12.657-2.297 4.28.407 8.164 1.899 11.656 4.47 3.488 2.573 6.234 6 8.234 10.28 1.957 4.164 2.828 8.352 2.61 12.563-.211 4.219-1.54 8.078-3.985 11.578-2.437 3.5-5.875 6.285-10.312 8.36Zm2.39-28.062c-1.312-2.793-3.203-4.774-5.672-5.938-2.468-1.156-5.171-1.297-8.109-.422l9.813 20.97c2.488-1.68 4.093-3.845 4.812-6.5.719-2.657.438-5.36-.844-8.11ZM669.358 349.233c1.176 5.695.414 10.656-2.281 14.875-2.7 4.218-7.418 7.02-14.156 8.406l-26.344 5.437-2.766-13.343 24.297-5.016c3.656-.75 6.219-2.11 7.688-4.078 1.468-1.961 1.89-4.453 1.265-7.484-.687-3.368-2.281-5.836-4.781-7.407-2.492-1.562-5.793-1.918-9.906-1.062l-22.75 4.687-2.766-13.343 46.031-9.5 2.641 12.75-5.39 1.109c2.3 1.363 4.25 3.25 5.843 5.656 1.602 2.406 2.727 5.176 3.375 8.313ZM628.483 414.772c-1-1.336-1.75-2.977-2.25-4.922-.5-1.95-.754-4-.765-6.156-.02-5.594 1.39-9.93 4.234-13 2.844-3.063 7.035-4.606 12.578-4.625l19.297-.063-.031-7.25 10.484-.047.031 7.25 11.454-.046.046 13.625-11.453.046.047 11.72-10.484.046-.047-11.719-19.125.063c-1.98.008-3.508.523-4.578 1.547-1.074 1.031-1.61 2.476-1.61 4.343.008 2.157.602 3.985 1.782 5.485ZM633.305 569.534l-44.984-46 7.016-13.468 42.953 7.203-30.313-31.453 7-13.422 63.516 10.453-6.781 13.015-44.516-7.609 31.469 32.64-6.063 11.61-44.875-7.625 31.828 32.656ZM595.321 576.007c.52 2.75.238 5.524-.844 8.328-1.074 2.801-2.855 5.504-5.343 8.11l-9.094-8.688c1.125-1.012 1.867-1.703 2.234-2.078 2.696-2.824 4.024-5.793 3.985-8.906-.043-3.106-1.649-6.168-4.813-9.188l-16.031-15.343 9.406-9.844 33.953 32.484-8.984 9.406ZM580.306 598.744l-10.61 8.531-29.468-36.609 10.609-8.531Zm-1.188 9.36c1.945-1.563 3.988-2.274 6.125-2.125 2.133.156 3.88 1.07 5.235 2.75 1.351 1.675 1.875 3.57 1.562 5.687-.312 2.125-1.445 3.969-3.39 5.531-1.962 1.582-3.993 2.32-6.094 2.219-2.094-.105-3.797-.977-5.11-2.61-1.43-1.761-1.996-3.714-1.703-5.859.29-2.148 1.414-4.011 3.375-5.593ZM508.553 593.74c.637-1.543 1.664-3.031 3.078-4.469a24.708 24.708 0 0 1 4.86-3.828c4.78-2.918 9.218-3.953 13.312-3.11 4.094.852 7.578 3.645 10.453 8.376l10.047 16.484 6.203-3.781 5.453 8.953-6.203 3.781 5.953 9.781-11.625 7.078-5.953-9.78-10.015 6.109-5.454-8.954 10.016-6.109-9.953-16.344c-1.031-1.687-2.258-2.73-3.688-3.125-1.437-.386-2.953-.09-4.546.891-1.832 1.113-3.094 2.566-3.782 4.36ZM470.66 631.022c-.063-.168-.407-1.343-1.032-3.53l33.313-12.47c-1.614-2.492-3.836-4.11-6.672-4.86-2.832-.741-5.91-.491-9.235.75-2.289.864-4.191 1.97-5.703 3.313-1.52 1.344-2.77 3.036-3.75 5.079l-9.547-4.829c2.368-6.304 7.528-10.945 15.485-13.921 4.969-1.856 9.726-2.528 14.265-2.016 4.543.508 8.496 2.094 11.86 4.75 3.351 2.664 5.847 6.18 7.484 10.547 1.613 4.312 2.047 8.582 1.297 12.812-.742 4.227-2.539 7.973-5.39 11.235-2.852 3.27-6.489 5.734-10.907 7.39-4.312 1.614-8.555 2.145-12.734 1.594-4.176-.543-7.91-2.172-11.203-4.89-3.301-2.72-5.813-6.372-7.532-10.954Zm27.78 4.625c2.9-1.086 5.024-2.812 6.376-5.187 1.343-2.367 1.699-5.043 1.062-8.031l-21.687 8.109c1.48 2.613 3.515 4.383 6.109 5.312 2.594.926 5.309.86 8.14-.203ZM452.858 651.392c-1.219 2.52-3.094 4.586-5.625 6.204-2.531 1.613-5.57 2.722-9.125 3.328l-2.125-12.391c1.5-.137 2.508-.25 3.016-.344 3.844-.656 6.68-2.25 8.5-4.781 1.812-2.523 2.351-5.937 1.61-10.25l-3.75-21.875 13.437-2.297 7.937 46.328-12.828 2.203ZM420 613.266c2.398-.102 4.448.617 6.156 2.172 1.699 1.55 2.605 3.547 2.718 5.984.117 2.508-.601 4.57-2.156 6.188-1.55 1.625-3.523 2.488-5.922 2.593-2.383.114-4.426-.562-6.125-2.031-1.707-1.46-2.617-3.445-2.734-5.953-.114-2.438.605-4.512 2.156-6.219 1.555-1.71 3.523-2.617 5.906-2.734Zm0 0" />
</svg>